<svg xmlns="http://www.w3.org/2000/svg" viewBox="0 0 760 320" width="760" height="320" font-family="sans-serif" font-size="12">
<text x="58" y="20" font-size="14" font-weight="bold">Rebuild 100 — green pair range (XmR): raw vs token-scaled</text>
<line x1="58" y1="34" x2="58" y2="280" stroke="#888"/>
<line x1="58" y1="280" x2="590" y2="280" stroke="#888"/>
<line x1="54" y1="280.0" x2="58" y2="280.0" stroke="#888"/>
<text x="51" y="284.0" text-anchor="end" fill="#555">0</text>
<line x1="54" y1="218.5" x2="58" y2="218.5" stroke="#888"/>
<text x="51" y="222.5" text-anchor="end" fill="#555">30</text>
<line x1="54" y1="157.0" x2="58" y2="157.0" stroke="#888"/>
<text x="51" y="161.0" text-anchor="end" fill="#555">60</text>
<line x1="54" y1="95.5" x2="58" y2="95.5" stroke="#888"/>
<text x="51" y="99.5" text-anchor="end" fill="#555">90</text>
<line x1="54" y1="34.0" x2="58" y2="34.0" stroke="#888"/>
<text x="51" y="38.0" text-anchor="end" fill="#555">120</text>
<text x="14" y="157" fill="#555" transform="rotate(-90 14 157)" text-anchor="middle">seconds</text>
<text x="58.0" y="296" text-anchor="middle" fill="#555">1</text>
<text x="117.1" y="296" text-anchor="middle" fill="#555">2</text>
<text x="176.2" y="296" text-anchor="middle" fill="#555">3</text>
<text x="235.3" y="296" text-anchor="middle" fill="#555">4</text>
<text x="294.4" y="296" text-anchor="middle" fill="#555">5</text>
<text x="353.6" y="296" text-anchor="middle" fill="#555">6</text>
<text x="412.7" y="296" text-anchor="middle" fill="#555">7</text>
<text x="471.8" y="296" text-anchor="middle" fill="#555">8</text>
<text x="530.9" y="296" text-anchor="middle" fill="#555">9</text>
<text x="590.0" y="296" text-anchor="middle" fill="#555">10</text>
<line x1="58" y1="100.6" x2="590" y2="100.6" stroke="#ff7f0e" stroke-dasharray="5,4"/>
<text x="595" y="104.6" fill="#ff7f0e">UCL 88s</text>
<polyline fill="none" stroke="#d62728" stroke-width="1.5" points="58.0,249.2 117.1,167.7 176.2,267.2 235.3,218.7 294.4,262.4 353.6,62.5 412.7,239.6 471.8,275.5 530.9,278.3 590.0,240.3"/>
<circle cx="58.0" cy="249.2" r="3.2" fill="#d62728" stroke="#d62728" stroke-width="1.5"/>
<circle cx="117.1" cy="167.7" r="3.2" fill="#d62728" stroke="#d62728" stroke-width="1.5"/>
<circle cx="176.2" cy="267.2" r="3.2" fill="#d62728" stroke="#d62728" stroke-width="1.5"/>
<circle cx="235.3" cy="218.7" r="3.2" fill="#d62728" stroke="#d62728" stroke-width="1.5"/>
<circle cx="294.4" cy="262.4" r="3.2" fill="#d62728" stroke="#d62728" stroke-width="1.5"/>
<circle cx="353.6" cy="62.5" r="3.2" fill="#d62728" stroke="#d62728" stroke-width="1.5"/>
<circle cx="412.7" cy="239.6" r="3.2" fill="#d62728" stroke="#d62728" stroke-width="1.5"/>
<circle cx="471.8" cy="275.5" r="3.2" fill="#d62728" stroke="#d62728" stroke-width="1.5"/>
<circle cx="530.9" cy="278.3" r="3.2" fill="#d62728" stroke="#d62728" stroke-width="1.5"/>
<circle cx="590.0" cy="240.3" r="3.2" fill="#d62728" stroke="#d62728" stroke-width="1.5"/>
<polyline fill="none" stroke="#1f77b4" stroke-width="1.5" points="58.0,219.3 117.1,158.4 176.2,274.1 235.3,247.9 294.4,276.5 353.6,172.5 412.7,273.9 471.8,279.1 530.9,244.9 590.0,232.0"/>
<circle cx="58.0" cy="219.3" r="3.2" fill="#1f77b4" stroke="#1f77b4" stroke-width="1.5"/>
<circle cx="117.1" cy="158.4" r="3.2" fill="#1f77b4" stroke="#1f77b4" stroke-width="1.5"/>
<circle cx="176.2" cy="274.1" r="3.2" fill="#1f77b4" stroke="#1f77b4" stroke-width="1.5"/>
<circle cx="235.3" cy="247.9" r="3.2" fill="#1f77b4" stroke="#1f77b4" stroke-width="1.5"/>
<circle cx="294.4" cy="276.5" r="3.2" fill="#1f77b4" stroke="#1f77b4" stroke-width="1.5"/>
<circle cx="353.6" cy="172.5" r="3.2" fill="#1f77b4" stroke="#1f77b4" stroke-width="1.5"/>
<circle cx="412.7" cy="273.9" r="3.2" fill="#1f77b4" stroke="#1f77b4" stroke-width="1.5"/>
<circle cx="471.8" cy="279.1" r="3.2" fill="#1f77b4" stroke="#1f77b4" stroke-width="1.5"/>
<circle cx="530.9" cy="244.9" r="3.2" fill="#1f77b4" stroke="#1f77b4" stroke-width="1.5"/>
<circle cx="590.0" cy="232.0" r="3.2" fill="#1f77b4" stroke="#1f77b4" stroke-width="1.5"/>
<rect x="595" y="34" width="10" height="10" fill="#d62728"/><text x="609" y="43" fill="#333">raw range s</text>
<rect x="595" y="52" width="10" height="10" fill="#1f77b4"/><text x="609" y="61" fill="#333">token scaled s</text>
<rect x="595" y="70" width="10" height="10" fill="#ff7f0e"/><text x="609" y="79" fill="#333">range UCL</text>
</svg>
