<svg xmlns="http://www.w3.org/2000/svg" viewBox="0 0 760 320" width="760" height="320" font-family="sans-serif" font-size="12">
<text x="58" y="20" font-size="14" font-weight="bold">Rebuild 103 — green pair range (XmR): raw vs token-scaled</text>
<line x1="58" y1="34" x2="58" y2="280" stroke="#888"/>
<line x1="58" y1="280" x2="590" y2="280" stroke="#888"/>
<line x1="54" y1="280.0" x2="58" y2="280.0" stroke="#888"/>
<text x="51" y="284.0" text-anchor="end" fill="#555">0</text>
<line x1="54" y1="230.8" x2="58" y2="230.8" stroke="#888"/>
<text x="51" y="234.8" text-anchor="end" fill="#555">20</text>
<line x1="54" y1="181.6" x2="58" y2="181.6" stroke="#888"/>
<text x="51" y="185.6" text-anchor="end" fill="#555">40</text>
<line x1="54" y1="132.4" x2="58" y2="132.4" stroke="#888"/>
<text x="51" y="136.4" text-anchor="end" fill="#555">60</text>
<line x1="54" y1="83.2" x2="58" y2="83.2" stroke="#888"/>
<text x="51" y="87.2" text-anchor="end" fill="#555">80</text>
<line x1="54" y1="34.0" x2="58" y2="34.0" stroke="#888"/>
<text x="51" y="38.0" text-anchor="end" fill="#555">100</text>
<text x="14" y="157" fill="#555" transform="rotate(-90 14 157)" text-anchor="middle">seconds</text>
<text x="58.0" y="296" text-anchor="middle" fill="#555">1</text>
<text x="146.7" y="296" text-anchor="middle" fill="#555">2</text>
<text x="235.3" y="296" text-anchor="middle" fill="#555">3</text>
<text x="324.0" y="296" text-anchor="middle" fill="#555">4</text>
<text x="412.7" y="296" text-anchor="middle" fill="#555">5</text>
<text x="501.3" y="296" text-anchor="middle" fill="#555">6</text>
<text x="590.0" y="296" text-anchor="middle" fill="#555">7</text>
<line x1="58" y1="225.6" x2="590" y2="225.6" stroke="#ff7f0e" stroke-dasharray="5,4"/>
<text x="595" y="229.6" fill="#ff7f0e">UCL 22s</text>
<polyline fill="none" stroke="#d62728" stroke-width="1.5" points="58.0,258.7 146.7,231.6 235.3,243.5 324.0,144.5 412.7,73.2 501.3,138.4 590.0,244.9"/>
<circle cx="58.0" cy="258.7" r="3.2" fill="#d62728" stroke="#d62728" stroke-width="1.5"/>
<circle cx="146.7" cy="231.6" r="3.2" fill="#d62728" stroke="#d62728" stroke-width="1.5"/>
<circle cx="235.3" cy="243.5" r="3.2" fill="#d62728" stroke="#d62728" stroke-width="1.5"/>
<circle cx="324.0" cy="144.5" r="3.2" fill="#d62728" stroke="#d62728" stroke-width="1.5"/>
<circle cx="412.7" cy="73.2" r="3.2" fill="white" stroke="#d62728" stroke-width="1.5"/>
<circle cx="501.3" cy="138.4" r="3.2" fill="white" stroke="#d62728" stroke-width="1.5"/>
<circle cx="590.0" cy="244.9" r="3.2" fill="white" stroke="#d62728" stroke-width="1.5"/>
<polyline fill="none" stroke="#1f77b4" stroke-width="1.5" points="58.0,222.9 146.7,248.9 235.3,229.2 324.0,258.5 412.7,173.3 501.3,275.1 590.0,257.1"/>
<circle cx="58.0" cy="222.9" r="3.2" fill="#1f77b4" stroke="#1f77b4" stroke-width="1.5"/>
<circle cx="146.7" cy="248.9" r="3.2" fill="#1f77b4" stroke="#1f77b4" stroke-width="1.5"/>
<circle cx="235.3" cy="229.2" r="3.2" fill="#1f77b4" stroke="#1f77b4" stroke-width="1.5"/>
<circle cx="324.0" cy="258.5" r="3.2" fill="#1f77b4" stroke="#1f77b4" stroke-width="1.5"/>
<circle cx="412.7" cy="173.3" r="3.2" fill="white" stroke="#1f77b4" stroke-width="1.5"/>
<circle cx="501.3" cy="275.1" r="3.2" fill="white" stroke="#1f77b4" stroke-width="1.5"/>
<circle cx="590.0" cy="257.1" r="3.2" fill="white" stroke="#1f77b4" stroke-width="1.5"/>
<rect x="595" y="34" width="10" height="10" fill="#d62728"/><text x="609" y="43" fill="#333">raw range s</text>
<rect x="595" y="52" width="10" height="10" fill="#1f77b4"/><text x="609" y="61" fill="#333">token scaled s</text>
<rect x="595" y="70" width="10" height="10" fill="#ff7f0e"/><text x="609" y="79" fill="#333">range UCL</text>
<text x="595" y="88" fill="#555" font-size="10">open = excluded</text>
<text x="595" y="100" fill="#555" font-size="10">(assignable cause)</text>
</svg>
