<svg xmlns="http://www.w3.org/2000/svg" viewBox="0 0 760 320" width="760" height="320" font-family="sans-serif" font-size="12">
<text x="58" y="20" font-size="14" font-weight="bold">Rebuild 108 — green a vs green b time (level)</text>
<line x1="58" y1="34" x2="58" y2="280" stroke="#888"/>
<line x1="58" y1="280" x2="590" y2="280" stroke="#888"/>
<line x1="54" y1="280.0" x2="58" y2="280.0" stroke="#888"/>
<text x="51" y="284.0" text-anchor="end" fill="#555">0</text>
<line x1="54" y1="218.5" x2="58" y2="218.5" stroke="#888"/>
<text x="51" y="222.5" text-anchor="end" fill="#555">180</text>
<line x1="54" y1="157.0" x2="58" y2="157.0" stroke="#888"/>
<text x="51" y="161.0" text-anchor="end" fill="#555">360</text>
<line x1="54" y1="95.5" x2="58" y2="95.5" stroke="#888"/>
<text x="51" y="99.5" text-anchor="end" fill="#555">540</text>
<line x1="54" y1="34.0" x2="58" y2="34.0" stroke="#888"/>
<text x="51" y="38.0" text-anchor="end" fill="#555">720</text>
<text x="14" y="157" fill="#555" transform="rotate(-90 14 157)" text-anchor="middle">seconds</text>
<text x="58.0" y="296" text-anchor="middle" fill="#555">1</text>
<text x="191.0" y="296" text-anchor="middle" fill="#555">2</text>
<text x="324.0" y="296" text-anchor="middle" fill="#555">3</text>
<text x="457.0" y="296" text-anchor="middle" fill="#555">4</text>
<text x="590.0" y="296" text-anchor="middle" fill="#555">5</text>
<polyline fill="none" stroke="#1f77b4" stroke-width="1.5" points="58.0,167.2 191.0,82.9 324.0,185.7 457.0,156.5 590.0,118.2"/>
<circle cx="58.0" cy="167.2" r="3.2" fill="#1f77b4" stroke="#1f77b4" stroke-width="1.5"/>
<circle cx="191.0" cy="82.9" r="3.2" fill="#1f77b4" stroke="#1f77b4" stroke-width="1.5"/>
<circle cx="324.0" cy="185.7" r="3.2" fill="#1f77b4" stroke="#1f77b4" stroke-width="1.5"/>
<circle cx="457.0" cy="156.5" r="3.2" fill="#1f77b4" stroke="#1f77b4" stroke-width="1.5"/>
<circle cx="590.0" cy="118.2" r="3.2" fill="#1f77b4" stroke="#1f77b4" stroke-width="1.5"/>
<polyline fill="none" stroke="#ff7f0e" stroke-width="1.5" points="58.0,121.7 191.0,51.5 324.0,175.0 457.0,178.3 590.0,162.0"/>
<circle cx="58.0" cy="121.7" r="3.2" fill="#ff7f0e" stroke="#ff7f0e" stroke-width="1.5"/>
<circle cx="191.0" cy="51.5" r="3.2" fill="#ff7f0e" stroke="#ff7f0e" stroke-width="1.5"/>
<circle cx="324.0" cy="175.0" r="3.2" fill="#ff7f0e" stroke="#ff7f0e" stroke-width="1.5"/>
<circle cx="457.0" cy="178.3" r="3.2" fill="#ff7f0e" stroke="#ff7f0e" stroke-width="1.5"/>
<circle cx="590.0" cy="162.0" r="3.2" fill="#ff7f0e" stroke="#ff7f0e" stroke-width="1.5"/>
<rect x="595" y="34" width="10" height="10" fill="#1f77b4"/><text x="609" y="43" fill="#333">green a time</text>
<rect x="595" y="52" width="10" height="10" fill="#ff7f0e"/><text x="609" y="61" fill="#333">green b time</text>
</svg>
