<svg xmlns="http://www.w3.org/2000/svg" viewBox="0 0 760 320" width="760" height="320" font-family="sans-serif" font-size="12">
<text x="58" y="20" font-size="14" font-weight="bold">Rebuild 108 — green pair range (XmR): raw vs token-scaled</text>
<line x1="58" y1="34" x2="58" y2="280" stroke="#888"/>
<line x1="58" y1="280" x2="590" y2="280" stroke="#888"/>
<line x1="54" y1="280.0" x2="58" y2="280.0" stroke="#888"/>
<text x="51" y="284.0" text-anchor="end" fill="#555">0</text>
<line x1="54" y1="198.0" x2="58" y2="198.0" stroke="#888"/>
<text x="51" y="202.0" text-anchor="end" fill="#555">60</text>
<line x1="54" y1="116.0" x2="58" y2="116.0" stroke="#888"/>
<text x="51" y="120.0" text-anchor="end" fill="#555">120</text>
<line x1="54" y1="34.0" x2="58" y2="34.0" stroke="#888"/>
<text x="51" y="38.0" text-anchor="end" fill="#555">180</text>
<text x="14" y="157" fill="#555" transform="rotate(-90 14 157)" text-anchor="middle">seconds</text>
<text x="58.0" y="296" text-anchor="middle" fill="#555">1</text>
<text x="191.0" y="296" text-anchor="middle" fill="#555">2</text>
<text x="324.0" y="296" text-anchor="middle" fill="#555">3</text>
<text x="457.0" y="296" text-anchor="middle" fill="#555">4</text>
<text x="590.0" y="296" text-anchor="middle" fill="#555">5</text>
<line x1="58" y1="68.6" x2="590" y2="68.6" stroke="#ff7f0e" stroke-dasharray="5,4"/>
<text x="595" y="72.6" fill="#ff7f0e">UCL 155s</text>
<polyline fill="none" stroke="#d62728" stroke-width="1.5" points="58.0,98.0 191.0,154.6 324.0,237.2 457.0,192.8 590.0,104.8"/>
<circle cx="58.0" cy="98.0" r="3.2" fill="#d62728" stroke="#d62728" stroke-width="1.5"/>
<circle cx="191.0" cy="154.6" r="3.2" fill="#d62728" stroke="#d62728" stroke-width="1.5"/>
<circle cx="324.0" cy="237.2" r="3.2" fill="#d62728" stroke="#d62728" stroke-width="1.5"/>
<circle cx="457.0" cy="192.8" r="3.2" fill="#d62728" stroke="#d62728" stroke-width="1.5"/>
<circle cx="590.0" cy="104.8" r="3.2" fill="#d62728" stroke="#d62728" stroke-width="1.5"/>
<polyline fill="none" stroke="#1f77b4" stroke-width="1.5" points="58.0,153.1 191.0,215.1 324.0,219.9 457.0,239.8 590.0,134.9"/>
<circle cx="58.0" cy="153.1" r="3.2" fill="#1f77b4" stroke="#1f77b4" stroke-width="1.5"/>
<circle cx="191.0" cy="215.1" r="3.2" fill="#1f77b4" stroke="#1f77b4" stroke-width="1.5"/>
<circle cx="324.0" cy="219.9" r="3.2" fill="#1f77b4" stroke="#1f77b4" stroke-width="1.5"/>
<circle cx="457.0" cy="239.8" r="3.2" fill="#1f77b4" stroke="#1f77b4" stroke-width="1.5"/>
<circle cx="590.0" cy="134.9" r="3.2" fill="#1f77b4" stroke="#1f77b4" stroke-width="1.5"/>
<rect x="595" y="34" width="10" height="10" fill="#d62728"/><text x="609" y="43" fill="#333">raw range s</text>
<rect x="595" y="52" width="10" height="10" fill="#1f77b4"/><text x="609" y="61" fill="#333">token scaled s</text>
<rect x="595" y="70" width="10" height="10" fill="#ff7f0e"/><text x="609" y="79" fill="#333">range UCL</text>
</svg>
