<svg xmlns="http://www.w3.org/2000/svg" viewBox="0 0 760 320" width="760" height="320" font-family="sans-serif" font-size="12">
<text x="58" y="20" font-size="14" font-weight="bold">Rebuild 111 — green pair range (XmR): raw vs token-scaled</text>
<line x1="58" y1="34" x2="58" y2="280" stroke="#888"/>
<line x1="58" y1="280" x2="590" y2="280" stroke="#888"/>
<line x1="54" y1="280.0" x2="58" y2="280.0" stroke="#888"/>
<text x="51" y="284.0" text-anchor="end" fill="#555">0</text>
<line x1="54" y1="218.5" x2="58" y2="218.5" stroke="#888"/>
<text x="51" y="222.5" text-anchor="end" fill="#555">30</text>
<line x1="54" y1="157.0" x2="58" y2="157.0" stroke="#888"/>
<text x="51" y="161.0" text-anchor="end" fill="#555">60</text>
<line x1="54" y1="95.5" x2="58" y2="95.5" stroke="#888"/>
<text x="51" y="99.5" text-anchor="end" fill="#555">90</text>
<line x1="54" y1="34.0" x2="58" y2="34.0" stroke="#888"/>
<text x="51" y="38.0" text-anchor="end" fill="#555">120</text>
<text x="14" y="157" fill="#555" transform="rotate(-90 14 157)" text-anchor="middle">seconds</text>
<text x="58.0" y="296" text-anchor="middle" fill="#555">1</text>
<text x="134.0" y="296" text-anchor="middle" fill="#555">2</text>
<text x="210.0" y="296" text-anchor="middle" fill="#555">3</text>
<text x="286.0" y="296" text-anchor="middle" fill="#555">4</text>
<text x="362.0" y="296" text-anchor="middle" fill="#555">5</text>
<text x="438.0" y="296" text-anchor="middle" fill="#555">6</text>
<text x="514.0" y="296" text-anchor="middle" fill="#555">7</text>
<text x="590.0" y="296" text-anchor="middle" fill="#555">8</text>
<line x1="58" y1="59.6" x2="590" y2="59.6" stroke="#ff7f0e" stroke-dasharray="5,4"/>
<text x="595" y="63.6" fill="#ff7f0e">UCL 108s</text>
<polyline fill="none" stroke="#d62728" stroke-width="1.5" points="58.0,153.3 134.0,128.6 210.0,162.3 286.0,279.2 362.0,232.4 438.0,86.9 514.0,199.0 590.0,248.2"/>
<circle cx="58.0" cy="153.3" r="3.2" fill="#d62728" stroke="#d62728" stroke-width="1.5"/>
<circle cx="134.0" cy="128.6" r="3.2" fill="#d62728" stroke="#d62728" stroke-width="1.5"/>
<circle cx="210.0" cy="162.3" r="3.2" fill="#d62728" stroke="#d62728" stroke-width="1.5"/>
<circle cx="286.0" cy="279.2" r="3.2" fill="#d62728" stroke="#d62728" stroke-width="1.5"/>
<circle cx="362.0" cy="232.4" r="3.2" fill="#d62728" stroke="#d62728" stroke-width="1.5"/>
<circle cx="438.0" cy="86.9" r="3.2" fill="#d62728" stroke="#d62728" stroke-width="1.5"/>
<circle cx="514.0" cy="199.0" r="3.2" fill="#d62728" stroke="#d62728" stroke-width="1.5"/>
<circle cx="590.0" cy="248.2" r="3.2" fill="#d62728" stroke="#d62728" stroke-width="1.5"/>
<polyline fill="none" stroke="#1f77b4" stroke-width="1.5" points="58.0,85.2 134.0,251.5 210.0,203.9 286.0,210.4 362.0,217.5 438.0,163.8 514.0,228.0 590.0,250.1"/>
<circle cx="58.0" cy="85.2" r="3.2" fill="#1f77b4" stroke="#1f77b4" stroke-width="1.5"/>
<circle cx="134.0" cy="251.5" r="3.2" fill="#1f77b4" stroke="#1f77b4" stroke-width="1.5"/>
<circle cx="210.0" cy="203.9" r="3.2" fill="#1f77b4" stroke="#1f77b4" stroke-width="1.5"/>
<circle cx="286.0" cy="210.4" r="3.2" fill="#1f77b4" stroke="#1f77b4" stroke-width="1.5"/>
<circle cx="362.0" cy="217.5" r="3.2" fill="#1f77b4" stroke="#1f77b4" stroke-width="1.5"/>
<circle cx="438.0" cy="163.8" r="3.2" fill="#1f77b4" stroke="#1f77b4" stroke-width="1.5"/>
<circle cx="514.0" cy="228.0" r="3.2" fill="#1f77b4" stroke="#1f77b4" stroke-width="1.5"/>
<circle cx="590.0" cy="250.1" r="3.2" fill="#1f77b4" stroke="#1f77b4" stroke-width="1.5"/>
<rect x="595" y="34" width="10" height="10" fill="#d62728"/><text x="609" y="43" fill="#333">raw range s</text>
<rect x="595" y="52" width="10" height="10" fill="#1f77b4"/><text x="609" y="61" fill="#333">token scaled s</text>
<rect x="595" y="70" width="10" height="10" fill="#ff7f0e"/><text x="609" y="79" fill="#333">range UCL</text>
</svg>
