<svg xmlns="http://www.w3.org/2000/svg" viewBox="0 0 760 320" width="760" height="320" font-family="sans-serif" font-size="12">
<text x="58" y="20" font-size="14" font-weight="bold">Rebuild 75 vs 76 — green time pair range (XmR)</text>
<line x1="58" y1="34" x2="58" y2="280" stroke="#888"/>
<line x1="58" y1="280" x2="590" y2="280" stroke="#888"/>
<line x1="54" y1="280.0" x2="58" y2="280.0" stroke="#888"/>
<text x="51" y="284.0" text-anchor="end" fill="#555">0</text>
<line x1="54" y1="218.5" x2="58" y2="218.5" stroke="#888"/>
<text x="51" y="222.5" text-anchor="end" fill="#555">60</text>
<line x1="54" y1="157.0" x2="58" y2="157.0" stroke="#888"/>
<text x="51" y="161.0" text-anchor="end" fill="#555">120</text>
<line x1="54" y1="95.5" x2="58" y2="95.5" stroke="#888"/>
<text x="51" y="99.5" text-anchor="end" fill="#555">180</text>
<line x1="54" y1="34.0" x2="58" y2="34.0" stroke="#888"/>
<text x="51" y="38.0" text-anchor="end" fill="#555">240</text>
<text x="14" y="157" fill="#555" transform="rotate(-90 14 157)" text-anchor="middle">seconds</text>
<text x="58.0" y="296" text-anchor="middle" fill="#555">1</text>
<text x="106.4" y="296" text-anchor="middle" fill="#555">2</text>
<text x="154.7" y="296" text-anchor="middle" fill="#555">3</text>
<text x="203.1" y="296" text-anchor="middle" fill="#555">4</text>
<text x="251.5" y="296" text-anchor="middle" fill="#555">5</text>
<text x="299.8" y="296" text-anchor="middle" fill="#555">6</text>
<text x="348.2" y="296" text-anchor="middle" fill="#555">7</text>
<text x="396.5" y="296" text-anchor="middle" fill="#555">8</text>
<text x="444.9" y="296" text-anchor="middle" fill="#555">9</text>
<text x="493.3" y="296" text-anchor="middle" fill="#555">10</text>
<text x="541.6" y="296" text-anchor="middle" fill="#555">11</text>
<text x="590.0" y="296" text-anchor="middle" fill="#555">12</text>
<text x="324" y="316" text-anchor="middle" fill="#555">scenario (run order, shortest→longest)</text>
<line x1="58" y1="228.6" x2="590" y2="228.6" stroke="#999" stroke-dasharray="5,4"/>
<text x="595" y="232.6" fill="#999">UCL 50s</text>
<line x1="58" y1="260.7" x2="590" y2="260.7" stroke="#bbb" stroke-dasharray="5,4"/>
<text x="595" y="264.7" fill="#bbb">mean 19s</text>
<polyline fill="none" stroke="#d62728" stroke-width="1.5" points="58.0,231.6 106.4,276.5 154.7,277.2 203.1,254.9 251.5,258.6 299.8,242.1 348.2,272.0 396.5,189.1 444.9,253.8 493.3,266.8 541.6,270.0 590.0,263.9"/>
<circle cx="58.0" cy="231.6" r="3.2" fill="#d62728" stroke="#d62728" stroke-width="1.5"/>
<text x="58.0" y="224.6" text-anchor="middle" font-size="10" fill="#d62728">47</text>
<circle cx="106.4" cy="276.5" r="3.2" fill="#d62728" stroke="#d62728" stroke-width="1.5"/>
<text x="106.4" y="269.5" text-anchor="middle" font-size="10" fill="#d62728">3</text>
<circle cx="154.7" cy="277.2" r="3.2" fill="#d62728" stroke="#d62728" stroke-width="1.5"/>
<text x="154.7" y="270.2" text-anchor="middle" font-size="10" fill="#d62728">3</text>
<circle cx="203.1" cy="254.9" r="3.2" fill="#d62728" stroke="#d62728" stroke-width="1.5"/>
<text x="203.1" y="247.9" text-anchor="middle" font-size="10" fill="#d62728">24</text>
<circle cx="251.5" cy="258.6" r="3.2" fill="#d62728" stroke="#d62728" stroke-width="1.5"/>
<text x="251.5" y="251.6" text-anchor="middle" font-size="10" fill="#d62728">21</text>
<circle cx="299.8" cy="242.1" r="3.2" fill="#d62728" stroke="#d62728" stroke-width="1.5"/>
<text x="299.8" y="235.1" text-anchor="middle" font-size="10" fill="#d62728">37</text>
<circle cx="348.2" cy="272.0" r="3.2" fill="#d62728" stroke="#d62728" stroke-width="1.5"/>
<text x="348.2" y="265.0" text-anchor="middle" font-size="10" fill="#d62728">8</text>
<circle cx="396.5" cy="189.1" r="3.2" fill="#d62728" stroke="#d62728" stroke-width="1.5"/>
<text x="396.5" y="182.1" text-anchor="middle" font-size="10" fill="#d62728">89</text>
<circle cx="444.9" cy="253.8" r="3.2" fill="#d62728" stroke="#d62728" stroke-width="1.5"/>
<text x="444.9" y="246.8" text-anchor="middle" font-size="10" fill="#d62728">26</text>
<circle cx="493.3" cy="266.8" r="3.2" fill="#d62728" stroke="#d62728" stroke-width="1.5"/>
<text x="493.3" y="259.8" text-anchor="middle" font-size="10" fill="#d62728">13</text>
<circle cx="541.6" cy="270.0" r="3.2" fill="#d62728" stroke="#d62728" stroke-width="1.5"/>
<text x="541.6" y="263.0" text-anchor="middle" font-size="10" fill="#d62728">10</text>
<circle cx="590.0" cy="263.9" r="3.2" fill="#d62728" stroke="#d62728" stroke-width="1.5"/>
<text x="590.0" y="256.9" text-anchor="middle" font-size="10" fill="#d62728">16</text>
<rect x="595" y="34" width="10" height="10" fill="#d62728"/><text x="609" y="43" fill="#333">green time pair range</text>
</svg>