<svg xmlns="http://www.w3.org/2000/svg" viewBox="0 0 760 320" width="760" height="320" font-family="sans-serif" font-size="12">
<text x="58" y="20" font-size="14" font-weight="bold">Rebuild 85 — green time pair range (XmR)</text>
<line x1="58" y1="34" x2="58" y2="280" stroke="#888"/>
<line x1="58" y1="280" x2="590" y2="280" stroke="#888"/>
<line x1="54" y1="280.0" x2="58" y2="280.0" stroke="#888"/>
<text x="51" y="284.0" text-anchor="end" fill="#555">0</text>
<line x1="54" y1="218.5" x2="58" y2="218.5" stroke="#888"/>
<text x="51" y="222.5" text-anchor="end" fill="#555">60</text>
<line x1="54" y1="157.0" x2="58" y2="157.0" stroke="#888"/>
<text x="51" y="161.0" text-anchor="end" fill="#555">120</text>
<line x1="54" y1="95.5" x2="58" y2="95.5" stroke="#888"/>
<text x="51" y="99.5" text-anchor="end" fill="#555">180</text>
<line x1="54" y1="34.0" x2="58" y2="34.0" stroke="#888"/>
<text x="51" y="38.0" text-anchor="end" fill="#555">240</text>
<text x="14" y="157" fill="#555" transform="rotate(-90 14 157)" text-anchor="middle">seconds</text>
<text x="58.0" y="296" text-anchor="middle" fill="#555">1</text>
<text x="106.4" y="296" text-anchor="middle" fill="#555">2</text>
<text x="154.7" y="296" text-anchor="middle" fill="#555">3</text>
<text x="203.1" y="296" text-anchor="middle" fill="#555">4</text>
<text x="251.5" y="296" text-anchor="middle" fill="#555">5</text>
<text x="299.8" y="296" text-anchor="middle" fill="#555">6</text>
<text x="348.2" y="296" text-anchor="middle" fill="#555">7</text>
<text x="396.5" y="296" text-anchor="middle" fill="#555">8</text>
<text x="444.9" y="296" text-anchor="middle" fill="#555">9</text>
<text x="493.3" y="296" text-anchor="middle" fill="#555">10</text>
<text x="541.6" y="296" text-anchor="middle" fill="#555">11</text>
<text x="590.0" y="296" text-anchor="middle" fill="#555">12</text>
<text x="324" y="316" text-anchor="middle" fill="#555">scenario (run order, shortest→longest)</text>
<line x1="58" y1="199.4" x2="590" y2="199.4" stroke="#999" stroke-dasharray="5,4"/>
<text x="595" y="203.4" fill="#999">UCL 79s</text>
<line x1="58" y1="254.4" x2="590" y2="254.4" stroke="#bbb" stroke-dasharray="5,4"/>
<text x="595" y="258.4" fill="#bbb">mean 25s</text>
<polyline fill="none" stroke="#d62728" stroke-width="1.5" points="58.0,262.2 106.4,245.3 154.7,238.3 203.1,220.7 251.5,265.5 299.8,279.0 348.2,260.3 396.5,261.7 444.9,271.6 493.3,272.2 541.6,217.0 590.0,258.9"/>
<circle cx="58.0" cy="262.2" r="3.2" fill="#d62728" stroke="#d62728" stroke-width="1.5"/>
<text x="58.0" y="255.2" text-anchor="middle" font-size="10" fill="#d62728">17</text>
<circle cx="106.4" cy="245.3" r="3.2" fill="#d62728" stroke="#d62728" stroke-width="1.5"/>
<text x="106.4" y="238.3" text-anchor="middle" font-size="10" fill="#d62728">34</text>
<circle cx="154.7" cy="238.3" r="3.2" fill="#d62728" stroke="#d62728" stroke-width="1.5"/>
<text x="154.7" y="231.3" text-anchor="middle" font-size="10" fill="#d62728">41</text>
<circle cx="203.1" cy="220.7" r="3.2" fill="#d62728" stroke="#d62728" stroke-width="1.5"/>
<text x="203.1" y="213.7" text-anchor="middle" font-size="10" fill="#d62728">58</text>
<circle cx="251.5" cy="265.5" r="3.2" fill="#d62728" stroke="#d62728" stroke-width="1.5"/>
<text x="251.5" y="258.5" text-anchor="middle" font-size="10" fill="#d62728">14</text>
<circle cx="299.8" cy="279.0" r="3.2" fill="#d62728" stroke="#d62728" stroke-width="1.5"/>
<text x="299.8" y="272.0" text-anchor="middle" font-size="10" fill="#d62728">1</text>
<circle cx="348.2" cy="260.3" r="3.2" fill="#d62728" stroke="#d62728" stroke-width="1.5"/>
<text x="348.2" y="253.3" text-anchor="middle" font-size="10" fill="#d62728">19</text>
<circle cx="396.5" cy="261.7" r="3.2" fill="#d62728" stroke="#d62728" stroke-width="1.5"/>
<text x="396.5" y="254.7" text-anchor="middle" font-size="10" fill="#d62728">18</text>
<circle cx="444.9" cy="271.6" r="3.2" fill="#d62728" stroke="#d62728" stroke-width="1.5"/>
<text x="444.9" y="264.6" text-anchor="middle" font-size="10" fill="#d62728">8</text>
<circle cx="493.3" cy="272.2" r="3.2" fill="#d62728" stroke="#d62728" stroke-width="1.5"/>
<text x="493.3" y="265.2" text-anchor="middle" font-size="10" fill="#d62728">8</text>
<circle cx="541.6" cy="217.0" r="3.2" fill="#d62728" stroke="#d62728" stroke-width="1.5"/>
<text x="541.6" y="210.0" text-anchor="middle" font-size="10" fill="#d62728">62</text>
<circle cx="590.0" cy="258.9" r="3.2" fill="#d62728" stroke="#d62728" stroke-width="1.5"/>
<text x="590.0" y="251.9" text-anchor="middle" font-size="10" fill="#d62728">21</text>
<rect x="595" y="34" width="10" height="10" fill="#d62728"/><text x="609" y="43" fill="#333">green time pair range</text>
</svg>