<svg xmlns="http://www.w3.org/2000/svg" viewBox="0 0 760 320" width="760" height="320" font-family="sans-serif" font-size="12">
<text x="58" y="20" font-size="14" font-weight="bold">Rebuild 87 — green time pair range (XmR)</text>
<line x1="58" y1="34" x2="58" y2="280" stroke="#888"/>
<line x1="58" y1="280" x2="590" y2="280" stroke="#888"/>
<line x1="54" y1="280.0" x2="58" y2="280.0" stroke="#888"/>
<text x="51" y="284.0" text-anchor="end" fill="#555">0</text>
<line x1="54" y1="198.0" x2="58" y2="198.0" stroke="#888"/>
<text x="51" y="202.0" text-anchor="end" fill="#555">20</text>
<line x1="54" y1="116.0" x2="58" y2="116.0" stroke="#888"/>
<text x="51" y="120.0" text-anchor="end" fill="#555">40</text>
<line x1="54" y1="34.0" x2="58" y2="34.0" stroke="#888"/>
<text x="51" y="38.0" text-anchor="end" fill="#555">60</text>
<text x="14" y="157" fill="#555" transform="rotate(-90 14 157)" text-anchor="middle">seconds</text>
<text x="58.0" y="296" text-anchor="middle" fill="#555">1</text>
<text x="106.4" y="296" text-anchor="middle" fill="#555">2</text>
<text x="154.7" y="296" text-anchor="middle" fill="#555">3</text>
<text x="203.1" y="296" text-anchor="middle" fill="#555">4</text>
<text x="251.5" y="296" text-anchor="middle" fill="#555">5</text>
<text x="299.8" y="296" text-anchor="middle" fill="#555">6</text>
<text x="348.2" y="296" text-anchor="middle" fill="#555">7</text>
<text x="396.5" y="296" text-anchor="middle" fill="#555">8</text>
<text x="444.9" y="296" text-anchor="middle" fill="#555">9</text>
<text x="493.3" y="296" text-anchor="middle" fill="#555">10</text>
<text x="541.6" y="296" text-anchor="middle" fill="#555">11</text>
<text x="590.0" y="296" text-anchor="middle" fill="#555">12</text>
<line x1="58" y1="74.5" x2="590" y2="74.5" stroke="#999" stroke-dasharray="5,4"/>
<text x="595" y="78.5" fill="#999">UCL 50s</text>
<line x1="58" y1="178.8" x2="590" y2="178.8" stroke="#bbb" stroke-dasharray="5,4"/>
<text x="595" y="182.8" fill="#bbb">mean 25s</text>
<polyline fill="none" stroke="#d62728" stroke-width="1.5" points="58.0,156.6 106.4,225.3 154.7,205.9 203.1,175.6 251.5,169.4 299.8,196.5 348.2,248.2 396.5,244.5 444.9,127.5 493.3,160.3 541.6,199.2 590.0,274.9"/>
<circle cx="58.0" cy="156.6" r="3.2" fill="#d62728" stroke="#d62728" stroke-width="1.5"/>
<text x="58.0" y="149.6" text-anchor="middle" font-size="10" fill="#d62728">30</text>
<circle cx="106.4" cy="225.3" r="3.2" fill="white" stroke="#d62728" stroke-width="1.5"/>
<text x="106.4" y="218.3" text-anchor="middle" font-size="10" fill="#d62728">13</text>
<circle cx="154.7" cy="205.9" r="3.2" fill="white" stroke="#d62728" stroke-width="1.5"/>
<text x="154.7" y="198.9" text-anchor="middle" font-size="10" fill="#d62728">18</text>
<circle cx="203.1" cy="175.6" r="3.2" fill="#d62728" stroke="#d62728" stroke-width="1.5"/>
<text x="203.1" y="168.6" text-anchor="middle" font-size="10" fill="#d62728">25</text>
<circle cx="251.5" cy="169.4" r="3.2" fill="#d62728" stroke="#d62728" stroke-width="1.5"/>
<text x="251.5" y="162.4" text-anchor="middle" font-size="10" fill="#d62728">27</text>
<circle cx="299.8" cy="196.5" r="3.2" fill="white" stroke="#d62728" stroke-width="1.5"/>
<text x="299.8" y="189.5" text-anchor="middle" font-size="10" fill="#d62728">20</text>
<circle cx="348.2" cy="248.2" r="3.2" fill="white" stroke="#d62728" stroke-width="1.5"/>
<text x="348.2" y="241.2" text-anchor="middle" font-size="10" fill="#d62728">8</text>
<circle cx="396.5" cy="244.5" r="3.2" fill="#d62728" stroke="#d62728" stroke-width="1.5"/>
<text x="396.5" y="237.5" text-anchor="middle" font-size="10" fill="#d62728">9</text>
<circle cx="444.9" cy="127.5" r="3.2" fill="#d62728" stroke="#d62728" stroke-width="1.5"/>
<text x="444.9" y="120.5" text-anchor="middle" font-size="10" fill="#d62728">37</text>
<circle cx="493.3" cy="160.3" r="3.2" fill="white" stroke="#d62728" stroke-width="1.5"/>
<text x="493.3" y="153.3" text-anchor="middle" font-size="10" fill="#d62728">29</text>
<circle cx="541.6" cy="199.2" r="3.2" fill="#d62728" stroke="#d62728" stroke-width="1.5"/>
<text x="541.6" y="192.2" text-anchor="middle" font-size="10" fill="#d62728">20</text>
<circle cx="590.0" cy="274.9" r="3.2" fill="white" stroke="#d62728" stroke-width="1.5"/>
<text x="590.0" y="267.9" text-anchor="middle" font-size="10" fill="#d62728">1</text>
<rect x="595" y="34" width="10" height="10" fill="#d62728"/><text x="609" y="43" fill="#333">green time pair range</text>
<text x="595" y="70" fill="#555" font-size="10">open = excluded</text>
<text x="595" y="82" fill="#555" font-size="10">(cell 4, charts raw)</text>
</svg>
