<svg xmlns="http://www.w3.org/2000/svg" viewBox="0 0 760 320" width="760" height="320" font-family="sans-serif" font-size="12">
<text x="58" y="20" font-size="14" font-weight="bold">Rebuild 88 — green time pair range (XmR)</text>
<line x1="58" y1="34" x2="58" y2="280" stroke="#888"/>
<line x1="58" y1="280" x2="590" y2="280" stroke="#888"/>
<line x1="54" y1="280.0" x2="58" y2="280.0" stroke="#888"/>
<text x="51" y="284.0" text-anchor="end" fill="#555">0</text>
<line x1="54" y1="230.8" x2="58" y2="230.8" stroke="#888"/>
<text x="51" y="234.8" text-anchor="end" fill="#555">30</text>
<line x1="54" y1="181.6" x2="58" y2="181.6" stroke="#888"/>
<text x="51" y="185.6" text-anchor="end" fill="#555">60</text>
<line x1="54" y1="132.4" x2="58" y2="132.4" stroke="#888"/>
<text x="51" y="136.4" text-anchor="end" fill="#555">90</text>
<line x1="54" y1="83.2" x2="58" y2="83.2" stroke="#888"/>
<text x="51" y="87.2" text-anchor="end" fill="#555">120</text>
<line x1="54" y1="34.0" x2="58" y2="34.0" stroke="#888"/>
<text x="51" y="38.0" text-anchor="end" fill="#555">150</text>
<text x="14" y="157" fill="#555" transform="rotate(-90 14 157)" text-anchor="middle">seconds</text>
<text x="58.0" y="296" text-anchor="middle" fill="#555">1</text>
<text x="106.4" y="296" text-anchor="middle" fill="#555">2</text>
<text x="154.7" y="296" text-anchor="middle" fill="#555">3</text>
<text x="203.1" y="296" text-anchor="middle" fill="#555">4</text>
<text x="251.5" y="296" text-anchor="middle" fill="#555">5</text>
<text x="299.8" y="296" text-anchor="middle" fill="#555">6</text>
<text x="348.2" y="296" text-anchor="middle" fill="#555">7</text>
<text x="396.5" y="296" text-anchor="middle" fill="#555">8</text>
<text x="444.9" y="296" text-anchor="middle" fill="#555">9</text>
<text x="493.3" y="296" text-anchor="middle" fill="#555">10</text>
<text x="541.6" y="296" text-anchor="middle" fill="#555">11</text>
<text x="590.0" y="296" text-anchor="middle" fill="#555">12</text>
<line x1="58" y1="36.0" x2="590" y2="36.0" stroke="#999" stroke-dasharray="5,4"/>
<text x="595" y="40.0" fill="#999">UCL 149s</text>
<line x1="58" y1="215.7" x2="590" y2="215.7" stroke="#bbb" stroke-dasharray="5,4"/>
<text x="595" y="219.7" fill="#bbb">mean 39s</text>
<polyline fill="none" stroke="#d62728" stroke-width="1.5" points="58.0,231.2 106.4,123.1 154.7,228.9 203.1,244.0 251.5,247.4 299.8,244.5 348.2,188.9 396.5,250.1 444.9,150.5 493.3,276.4 541.6,231.2 590.0,246.5"/>
<circle cx="58.0" cy="231.2" r="3.2" fill="white" stroke="#d62728" stroke-width="1.5"/>
<text x="58.0" y="224.2" text-anchor="middle" font-size="10" fill="#d62728">30</text>
<circle cx="106.4" cy="123.1" r="3.2" fill="#d62728" stroke="#d62728" stroke-width="1.5"/>
<text x="106.4" y="116.1" text-anchor="middle" font-size="10" fill="#d62728">96</text>
<circle cx="154.7" cy="228.9" r="3.2" fill="#d62728" stroke="#d62728" stroke-width="1.5"/>
<text x="154.7" y="221.9" text-anchor="middle" font-size="10" fill="#d62728">31</text>
<circle cx="203.1" cy="244.0" r="3.2" fill="white" stroke="#d62728" stroke-width="1.5"/>
<text x="203.1" y="237.0" text-anchor="middle" font-size="10" fill="#d62728">22</text>
<circle cx="251.5" cy="247.4" r="3.2" fill="#d62728" stroke="#d62728" stroke-width="1.5"/>
<text x="251.5" y="240.4" text-anchor="middle" font-size="10" fill="#d62728">20</text>
<circle cx="299.8" cy="244.5" r="3.2" fill="#d62728" stroke="#d62728" stroke-width="1.5"/>
<text x="299.8" y="237.5" text-anchor="middle" font-size="10" fill="#d62728">22</text>
<circle cx="348.2" cy="188.9" r="3.2" fill="#d62728" stroke="#d62728" stroke-width="1.5"/>
<text x="348.2" y="181.9" text-anchor="middle" font-size="10" fill="#d62728">56</text>
<circle cx="396.5" cy="250.1" r="3.2" fill="#d62728" stroke="#d62728" stroke-width="1.5"/>
<text x="396.5" y="243.1" text-anchor="middle" font-size="10" fill="#d62728">18</text>
<circle cx="444.9" cy="150.5" r="3.2" fill="#d62728" stroke="#d62728" stroke-width="1.5"/>
<text x="444.9" y="143.5" text-anchor="middle" font-size="10" fill="#d62728">79</text>
<circle cx="493.3" cy="276.4" r="3.2" fill="#d62728" stroke="#d62728" stroke-width="1.5"/>
<text x="493.3" y="269.4" text-anchor="middle" font-size="10" fill="#d62728">2</text>
<circle cx="541.6" cy="231.2" r="3.2" fill="#d62728" stroke="#d62728" stroke-width="1.5"/>
<text x="541.6" y="224.2" text-anchor="middle" font-size="10" fill="#d62728">30</text>
<circle cx="590.0" cy="246.5" r="3.2" fill="white" stroke="#d62728" stroke-width="1.5"/>
<text x="590.0" y="239.5" text-anchor="middle" font-size="10" fill="#d62728">20</text>
<rect x="595" y="34" width="10" height="10" fill="#d62728"/><text x="609" y="43" fill="#333">green time pair range</text>
<text x="595" y="70" fill="#555" font-size="10">open = excluded</text>
<text x="595" y="82" fill="#555" font-size="10">(cell 4, charts raw)</text>
</svg>
