<svg xmlns="http://www.w3.org/2000/svg" viewBox="0 0 760 320" width="760" height="320" font-family="sans-serif" font-size="12">
<text x="58" y="20" font-size="14" font-weight="bold">Rebuild 88 — green a / green b time, scaled</text>
<line x1="58" y1="34" x2="58" y2="280" stroke="#888"/>
<line x1="58" y1="280" x2="590" y2="280" stroke="#888"/>
<line x1="54" y1="280.0" x2="58" y2="280.0" stroke="#888"/>
<text x="51" y="284.0" text-anchor="end" fill="#555">0</text>
<line x1="54" y1="230.8" x2="58" y2="230.8" stroke="#888"/>
<text x="51" y="234.8" text-anchor="end" fill="#555">120</text>
<line x1="54" y1="181.6" x2="58" y2="181.6" stroke="#888"/>
<text x="51" y="185.6" text-anchor="end" fill="#555">240</text>
<line x1="54" y1="132.4" x2="58" y2="132.4" stroke="#888"/>
<text x="51" y="136.4" text-anchor="end" fill="#555">360</text>
<line x1="54" y1="83.2" x2="58" y2="83.2" stroke="#888"/>
<text x="51" y="87.2" text-anchor="end" fill="#555">480</text>
<line x1="54" y1="34.0" x2="58" y2="34.0" stroke="#888"/>
<text x="51" y="38.0" text-anchor="end" fill="#555">600</text>
<text x="14" y="157" fill="#555" transform="rotate(-90 14 157)" text-anchor="middle">seconds</text>
<text x="58.0" y="296" text-anchor="middle" fill="#555">1</text>
<text x="106.4" y="296" text-anchor="middle" fill="#555">2</text>
<text x="154.7" y="296" text-anchor="middle" fill="#555">3</text>
<text x="203.1" y="296" text-anchor="middle" fill="#555">4</text>
<text x="251.5" y="296" text-anchor="middle" fill="#555">5</text>
<text x="299.8" y="296" text-anchor="middle" fill="#555">6</text>
<text x="348.2" y="296" text-anchor="middle" fill="#555">7</text>
<text x="396.5" y="296" text-anchor="middle" fill="#555">8</text>
<text x="444.9" y="296" text-anchor="middle" fill="#555">9</text>
<text x="493.3" y="296" text-anchor="middle" fill="#555">10</text>
<text x="541.6" y="296" text-anchor="middle" fill="#555">11</text>
<text x="590.0" y="296" text-anchor="middle" fill="#555">12</text>
<polyline fill="none" stroke="#1f77b4" stroke-width="1.5" points="58.0,89.6 106.4,184.7 154.7,152.1 203.1,162.4 251.5,180.9 299.8,170.4 348.2,144.6 396.5,163.4 444.9,160.8 493.3,161.0 541.6,148.1 590.0,186.3"/>
<circle cx="58.0" cy="89.6" r="3.2" fill="#1f77b4" stroke="#1f77b4" stroke-width="1.5"/>
<circle cx="106.4" cy="184.7" r="3.2" fill="#1f77b4" stroke="#1f77b4" stroke-width="1.5"/>
<circle cx="154.7" cy="152.1" r="3.2" fill="#1f77b4" stroke="#1f77b4" stroke-width="1.5"/>
<circle cx="203.1" cy="162.4" r="3.2" fill="#1f77b4" stroke="#1f77b4" stroke-width="1.5"/>
<circle cx="251.5" cy="180.9" r="3.2" fill="#1f77b4" stroke="#1f77b4" stroke-width="1.5"/>
<circle cx="299.8" cy="170.4" r="3.2" fill="#1f77b4" stroke="#1f77b4" stroke-width="1.5"/>
<circle cx="348.2" cy="144.6" r="3.2" fill="#1f77b4" stroke="#1f77b4" stroke-width="1.5"/>
<circle cx="396.5" cy="163.4" r="3.2" fill="#1f77b4" stroke="#1f77b4" stroke-width="1.5"/>
<circle cx="444.9" cy="160.8" r="3.2" fill="#1f77b4" stroke="#1f77b4" stroke-width="1.5"/>
<circle cx="493.3" cy="161.0" r="3.2" fill="#1f77b4" stroke="#1f77b4" stroke-width="1.5"/>
<circle cx="541.6" cy="148.1" r="3.2" fill="#1f77b4" stroke="#1f77b4" stroke-width="1.5"/>
<circle cx="590.0" cy="186.3" r="3.2" fill="#1f77b4" stroke="#1f77b4" stroke-width="1.5"/>
<polyline fill="none" stroke="#ff7f0e" stroke-width="1.5" points="58.0,77.4 106.4,145.5 154.7,164.9 203.1,171.5 251.5,172.8 299.8,179.3 348.2,167.4 396.5,155.9 444.9,128.4 493.3,161.9 541.6,160.3 590.0,178.0"/>
<circle cx="58.0" cy="77.4" r="3.2" fill="#ff7f0e" stroke="#ff7f0e" stroke-width="1.5"/>
<circle cx="106.4" cy="145.5" r="3.2" fill="#ff7f0e" stroke="#ff7f0e" stroke-width="1.5"/>
<circle cx="154.7" cy="164.9" r="3.2" fill="#ff7f0e" stroke="#ff7f0e" stroke-width="1.5"/>
<circle cx="203.1" cy="171.5" r="3.2" fill="#ff7f0e" stroke="#ff7f0e" stroke-width="1.5"/>
<circle cx="251.5" cy="172.8" r="3.2" fill="#ff7f0e" stroke="#ff7f0e" stroke-width="1.5"/>
<circle cx="299.8" cy="179.3" r="3.2" fill="#ff7f0e" stroke="#ff7f0e" stroke-width="1.5"/>
<circle cx="348.2" cy="167.4" r="3.2" fill="#ff7f0e" stroke="#ff7f0e" stroke-width="1.5"/>
<circle cx="396.5" cy="155.9" r="3.2" fill="#ff7f0e" stroke="#ff7f0e" stroke-width="1.5"/>
<circle cx="444.9" cy="128.4" r="3.2" fill="#ff7f0e" stroke="#ff7f0e" stroke-width="1.5"/>
<circle cx="493.3" cy="161.9" r="3.2" fill="#ff7f0e" stroke="#ff7f0e" stroke-width="1.5"/>
<circle cx="541.6" cy="160.3" r="3.2" fill="#ff7f0e" stroke="#ff7f0e" stroke-width="1.5"/>
<circle cx="590.0" cy="178.0" r="3.2" fill="#ff7f0e" stroke="#ff7f0e" stroke-width="1.5"/>
<rect x="595" y="34" width="10" height="10" fill="#1f77b4"/><text x="609" y="43" fill="#333">green a time</text>
<rect x="595" y="52" width="10" height="10" fill="#ff7f0e"/><text x="609" y="61" fill="#333">green b time</text>
</svg>
