<svg xmlns="http://www.w3.org/2000/svg" viewBox="0 0 760 320" width="760" height="320" font-family="sans-serif" font-size="12">
<text x="58" y="20" font-size="14" font-weight="bold">Rebuild 90 — green a time vs green b time</text>
<line x1="58" y1="34" x2="58" y2="280" stroke="#888"/>
<line x1="58" y1="280" x2="590" y2="280" stroke="#888"/>
<line x1="54" y1="280.0" x2="58" y2="280.0" stroke="#888"/>
<text x="51" y="284.0" text-anchor="end" fill="#555">0</text>
<line x1="54" y1="230.8" x2="58" y2="230.8" stroke="#888"/>
<text x="51" y="234.8" text-anchor="end" fill="#555">120</text>
<line x1="54" y1="181.6" x2="58" y2="181.6" stroke="#888"/>
<text x="51" y="185.6" text-anchor="end" fill="#555">240</text>
<line x1="54" y1="132.4" x2="58" y2="132.4" stroke="#888"/>
<text x="51" y="136.4" text-anchor="end" fill="#555">360</text>
<line x1="54" y1="83.2" x2="58" y2="83.2" stroke="#888"/>
<text x="51" y="87.2" text-anchor="end" fill="#555">480</text>
<line x1="54" y1="34.0" x2="58" y2="34.0" stroke="#888"/>
<text x="51" y="38.0" text-anchor="end" fill="#555">600</text>
<text x="14" y="157" fill="#555" transform="rotate(-90 14 157)" text-anchor="middle">seconds</text>
<text x="58.0" y="296" text-anchor="middle" fill="#555">1</text>
<text x="89.3" y="296" text-anchor="middle" fill="#555">2</text>
<text x="120.6" y="296" text-anchor="middle" fill="#555">3</text>
<text x="151.9" y="296" text-anchor="middle" fill="#555">4</text>
<text x="183.2" y="296" text-anchor="middle" fill="#555">5</text>
<text x="214.5" y="296" text-anchor="middle" fill="#555">6</text>
<text x="245.8" y="296" text-anchor="middle" fill="#555">7</text>
<text x="277.1" y="296" text-anchor="middle" fill="#555">8</text>
<text x="308.4" y="296" text-anchor="middle" fill="#555">9</text>
<text x="339.6" y="296" text-anchor="middle" fill="#555">10</text>
<text x="370.9" y="296" text-anchor="middle" fill="#555">11</text>
<text x="402.2" y="296" text-anchor="middle" fill="#555">12</text>
<text x="433.5" y="296" text-anchor="middle" fill="#555">13</text>
<text x="464.8" y="296" text-anchor="middle" fill="#555">14</text>
<text x="496.1" y="296" text-anchor="middle" fill="#555">15</text>
<text x="527.4" y="296" text-anchor="middle" fill="#555">16</text>
<text x="558.7" y="296" text-anchor="middle" fill="#555">17</text>
<text x="590.0" y="296" text-anchor="middle" fill="#555">18</text>
<polyline fill="none" stroke="#1f77b4" stroke-width="1.5" points="58.0,89.9 89.3,117.2 120.6,173.4 151.9,155.4 183.2,172.6 214.5,148.2 245.8,164.5 277.1,157.5 308.4,156.7 339.6,170.6 370.9,130.9 402.2,159.4 433.5,160.9 464.8,159.8 496.1,150.0 527.4,132.8 558.7,77.2 590.0,107.0"/>
<circle cx="58.0" cy="89.9" r="3.2" fill="#1f77b4" stroke="#1f77b4" stroke-width="1.5"/>
<circle cx="89.3" cy="117.2" r="3.2" fill="#1f77b4" stroke="#1f77b4" stroke-width="1.5"/>
<circle cx="120.6" cy="173.4" r="3.2" fill="#1f77b4" stroke="#1f77b4" stroke-width="1.5"/>
<circle cx="151.9" cy="155.4" r="3.2" fill="#1f77b4" stroke="#1f77b4" stroke-width="1.5"/>
<circle cx="183.2" cy="172.6" r="3.2" fill="#1f77b4" stroke="#1f77b4" stroke-width="1.5"/>
<circle cx="214.5" cy="148.2" r="3.2" fill="#1f77b4" stroke="#1f77b4" stroke-width="1.5"/>
<circle cx="245.8" cy="164.5" r="3.2" fill="#1f77b4" stroke="#1f77b4" stroke-width="1.5"/>
<circle cx="277.1" cy="157.5" r="3.2" fill="#1f77b4" stroke="#1f77b4" stroke-width="1.5"/>
<circle cx="308.4" cy="156.7" r="3.2" fill="#1f77b4" stroke="#1f77b4" stroke-width="1.5"/>
<circle cx="339.6" cy="170.6" r="3.2" fill="#1f77b4" stroke="#1f77b4" stroke-width="1.5"/>
<circle cx="370.9" cy="130.9" r="3.2" fill="#1f77b4" stroke="#1f77b4" stroke-width="1.5"/>
<circle cx="402.2" cy="159.4" r="3.2" fill="#1f77b4" stroke="#1f77b4" stroke-width="1.5"/>
<circle cx="433.5" cy="160.9" r="3.2" fill="#1f77b4" stroke="#1f77b4" stroke-width="1.5"/>
<circle cx="464.8" cy="159.8" r="3.2" fill="#1f77b4" stroke="#1f77b4" stroke-width="1.5"/>
<circle cx="496.1" cy="150.0" r="3.2" fill="#1f77b4" stroke="#1f77b4" stroke-width="1.5"/>
<circle cx="527.4" cy="132.8" r="3.2" fill="#1f77b4" stroke="#1f77b4" stroke-width="1.5"/>
<circle cx="558.7" cy="77.2" r="3.2" fill="#1f77b4" stroke="#1f77b4" stroke-width="1.5"/>
<circle cx="590.0" cy="107.0" r="3.2" fill="#1f77b4" stroke="#1f77b4" stroke-width="1.5"/>
<polyline fill="none" stroke="#ff7f0e" stroke-width="1.5" points="58.0,97.5 89.3,110.0 120.6,168.4 151.9,158.0 183.2,176.3 214.5,154.4 245.8,160.1 277.1,140.9 308.4,154.8 339.6,156.9 370.9,154.2 402.2,157.5 433.5,155.3 464.8,157.9 496.1,131.4 527.4,145.5 558.7,107.5 590.0,97.3"/>
<circle cx="58.0" cy="97.5" r="3.2" fill="#ff7f0e" stroke="#ff7f0e" stroke-width="1.5"/>
<circle cx="89.3" cy="110.0" r="3.2" fill="#ff7f0e" stroke="#ff7f0e" stroke-width="1.5"/>
<circle cx="120.6" cy="168.4" r="3.2" fill="#ff7f0e" stroke="#ff7f0e" stroke-width="1.5"/>
<circle cx="151.9" cy="158.0" r="3.2" fill="#ff7f0e" stroke="#ff7f0e" stroke-width="1.5"/>
<circle cx="183.2" cy="176.3" r="3.2" fill="#ff7f0e" stroke="#ff7f0e" stroke-width="1.5"/>
<circle cx="214.5" cy="154.4" r="3.2" fill="#ff7f0e" stroke="#ff7f0e" stroke-width="1.5"/>
<circle cx="245.8" cy="160.1" r="3.2" fill="#ff7f0e" stroke="#ff7f0e" stroke-width="1.5"/>
<circle cx="277.1" cy="140.9" r="3.2" fill="#ff7f0e" stroke="#ff7f0e" stroke-width="1.5"/>
<circle cx="308.4" cy="154.8" r="3.2" fill="#ff7f0e" stroke="#ff7f0e" stroke-width="1.5"/>
<circle cx="339.6" cy="156.9" r="3.2" fill="#ff7f0e" stroke="#ff7f0e" stroke-width="1.5"/>
<circle cx="370.9" cy="154.2" r="3.2" fill="#ff7f0e" stroke="#ff7f0e" stroke-width="1.5"/>
<circle cx="402.2" cy="157.5" r="3.2" fill="#ff7f0e" stroke="#ff7f0e" stroke-width="1.5"/>
<circle cx="433.5" cy="155.3" r="3.2" fill="#ff7f0e" stroke="#ff7f0e" stroke-width="1.5"/>
<circle cx="464.8" cy="157.9" r="3.2" fill="#ff7f0e" stroke="#ff7f0e" stroke-width="1.5"/>
<circle cx="496.1" cy="131.4" r="3.2" fill="#ff7f0e" stroke="#ff7f0e" stroke-width="1.5"/>
<circle cx="527.4" cy="145.5" r="3.2" fill="#ff7f0e" stroke="#ff7f0e" stroke-width="1.5"/>
<circle cx="558.7" cy="107.5" r="3.2" fill="#ff7f0e" stroke="#ff7f0e" stroke-width="1.5"/>
<circle cx="590.0" cy="97.3" r="3.2" fill="#ff7f0e" stroke="#ff7f0e" stroke-width="1.5"/>
<rect x="595" y="34" width="10" height="10" fill="#1f77b4"/><text x="609" y="43" fill="#333">green a time</text>
<rect x="595" y="52" width="10" height="10" fill="#ff7f0e"/><text x="609" y="61" fill="#333">green b time</text>
</svg>
