<svg xmlns="http://www.w3.org/2000/svg" viewBox="0 0 760 320" width="760" height="320" font-family="sans-serif" font-size="12">
<text x="58" y="20" font-size="14" font-weight="bold">Rebuild 90 — green a / green b time, scaled</text>
<line x1="58" y1="34" x2="58" y2="280" stroke="#888"/>
<line x1="58" y1="280" x2="590" y2="280" stroke="#888"/>
<line x1="54" y1="280.0" x2="58" y2="280.0" stroke="#888"/>
<text x="51" y="284.0" text-anchor="end" fill="#555">0</text>
<line x1="54" y1="218.5" x2="58" y2="218.5" stroke="#888"/>
<text x="51" y="222.5" text-anchor="end" fill="#555">120</text>
<line x1="54" y1="157.0" x2="58" y2="157.0" stroke="#888"/>
<text x="51" y="161.0" text-anchor="end" fill="#555">240</text>
<line x1="54" y1="95.5" x2="58" y2="95.5" stroke="#888"/>
<text x="51" y="99.5" text-anchor="end" fill="#555">360</text>
<line x1="54" y1="34.0" x2="58" y2="34.0" stroke="#888"/>
<text x="51" y="38.0" text-anchor="end" fill="#555">480</text>
<text x="14" y="157" fill="#555" transform="rotate(-90 14 157)" text-anchor="middle">seconds</text>
<text x="58.0" y="296" text-anchor="middle" fill="#555">1</text>
<text x="89.3" y="296" text-anchor="middle" fill="#555">2</text>
<text x="120.6" y="296" text-anchor="middle" fill="#555">3</text>
<text x="151.9" y="296" text-anchor="middle" fill="#555">4</text>
<text x="183.2" y="296" text-anchor="middle" fill="#555">5</text>
<text x="214.5" y="296" text-anchor="middle" fill="#555">6</text>
<text x="245.8" y="296" text-anchor="middle" fill="#555">7</text>
<text x="277.1" y="296" text-anchor="middle" fill="#555">8</text>
<text x="308.4" y="296" text-anchor="middle" fill="#555">9</text>
<text x="339.6" y="296" text-anchor="middle" fill="#555">10</text>
<text x="370.9" y="296" text-anchor="middle" fill="#555">11</text>
<text x="402.2" y="296" text-anchor="middle" fill="#555">12</text>
<text x="433.5" y="296" text-anchor="middle" fill="#555">13</text>
<text x="464.8" y="296" text-anchor="middle" fill="#555">14</text>
<text x="496.1" y="296" text-anchor="middle" fill="#555">15</text>
<text x="527.4" y="296" text-anchor="middle" fill="#555">16</text>
<text x="558.7" y="296" text-anchor="middle" fill="#555">17</text>
<text x="590.0" y="296" text-anchor="middle" fill="#555">18</text>
<polyline fill="none" stroke="#1f77b4" stroke-width="1.5" points="58.0,42.4 89.3,76.5 120.6,146.7 151.9,124.2 183.2,140.4 214.5,115.3 245.8,135.6 277.1,126.9 308.4,125.9 339.6,143.2 370.9,93.7 402.2,129.2 433.5,131.2 464.8,129.8 496.1,117.5 527.4,93.5 558.7,53.4 590.0,63.7"/>
<circle cx="58.0" cy="42.4" r="3.2" fill="#1f77b4" stroke="#1f77b4" stroke-width="1.5"/>
<circle cx="89.3" cy="76.5" r="3.2" fill="#1f77b4" stroke="#1f77b4" stroke-width="1.5"/>
<circle cx="120.6" cy="146.7" r="3.2" fill="#1f77b4" stroke="#1f77b4" stroke-width="1.5"/>
<circle cx="151.9" cy="124.2" r="3.2" fill="#1f77b4" stroke="#1f77b4" stroke-width="1.5"/>
<circle cx="183.2" cy="140.4" r="3.2" fill="#1f77b4" stroke="#1f77b4" stroke-width="1.5"/>
<circle cx="214.5" cy="115.3" r="3.2" fill="#1f77b4" stroke="#1f77b4" stroke-width="1.5"/>
<circle cx="245.8" cy="135.6" r="3.2" fill="#1f77b4" stroke="#1f77b4" stroke-width="1.5"/>
<circle cx="277.1" cy="126.9" r="3.2" fill="#1f77b4" stroke="#1f77b4" stroke-width="1.5"/>
<circle cx="308.4" cy="125.9" r="3.2" fill="#1f77b4" stroke="#1f77b4" stroke-width="1.5"/>
<circle cx="339.6" cy="143.2" r="3.2" fill="#1f77b4" stroke="#1f77b4" stroke-width="1.5"/>
<circle cx="370.9" cy="93.7" r="3.2" fill="#1f77b4" stroke="#1f77b4" stroke-width="1.5"/>
<circle cx="402.2" cy="129.2" r="3.2" fill="#1f77b4" stroke="#1f77b4" stroke-width="1.5"/>
<circle cx="433.5" cy="131.2" r="3.2" fill="#1f77b4" stroke="#1f77b4" stroke-width="1.5"/>
<circle cx="464.8" cy="129.8" r="3.2" fill="#1f77b4" stroke="#1f77b4" stroke-width="1.5"/>
<circle cx="496.1" cy="117.5" r="3.2" fill="#1f77b4" stroke="#1f77b4" stroke-width="1.5"/>
<circle cx="527.4" cy="93.5" r="3.2" fill="#1f77b4" stroke="#1f77b4" stroke-width="1.5"/>
<circle cx="558.7" cy="53.4" r="3.2" fill="#1f77b4" stroke="#1f77b4" stroke-width="1.5"/>
<circle cx="590.0" cy="63.7" r="3.2" fill="#1f77b4" stroke="#1f77b4" stroke-width="1.5"/>
<polyline fill="none" stroke="#ff7f0e" stroke-width="1.5" points="58.0,51.9 89.3,60.3 120.6,144.4 151.9,127.5 183.2,150.4 214.5,123.1 245.8,130.1 277.1,106.1 308.4,118.1 339.6,126.1 370.9,122.7 402.2,133.8 433.5,124.2 464.8,122.5 496.1,109.6 527.4,111.9 558.7,64.3 590.0,85.2"/>
<circle cx="58.0" cy="51.9" r="3.2" fill="#ff7f0e" stroke="#ff7f0e" stroke-width="1.5"/>
<circle cx="89.3" cy="60.3" r="3.2" fill="#ff7f0e" stroke="#ff7f0e" stroke-width="1.5"/>
<circle cx="120.6" cy="144.4" r="3.2" fill="#ff7f0e" stroke="#ff7f0e" stroke-width="1.5"/>
<circle cx="151.9" cy="127.5" r="3.2" fill="#ff7f0e" stroke="#ff7f0e" stroke-width="1.5"/>
<circle cx="183.2" cy="150.4" r="3.2" fill="#ff7f0e" stroke="#ff7f0e" stroke-width="1.5"/>
<circle cx="214.5" cy="123.1" r="3.2" fill="#ff7f0e" stroke="#ff7f0e" stroke-width="1.5"/>
<circle cx="245.8" cy="130.1" r="3.2" fill="#ff7f0e" stroke="#ff7f0e" stroke-width="1.5"/>
<circle cx="277.1" cy="106.1" r="3.2" fill="#ff7f0e" stroke="#ff7f0e" stroke-width="1.5"/>
<circle cx="308.4" cy="118.1" r="3.2" fill="#ff7f0e" stroke="#ff7f0e" stroke-width="1.5"/>
<circle cx="339.6" cy="126.1" r="3.2" fill="#ff7f0e" stroke="#ff7f0e" stroke-width="1.5"/>
<circle cx="370.9" cy="122.7" r="3.2" fill="#ff7f0e" stroke="#ff7f0e" stroke-width="1.5"/>
<circle cx="402.2" cy="133.8" r="3.2" fill="#ff7f0e" stroke="#ff7f0e" stroke-width="1.5"/>
<circle cx="433.5" cy="124.2" r="3.2" fill="#ff7f0e" stroke="#ff7f0e" stroke-width="1.5"/>
<circle cx="464.8" cy="122.5" r="3.2" fill="#ff7f0e" stroke="#ff7f0e" stroke-width="1.5"/>
<circle cx="496.1" cy="109.6" r="3.2" fill="#ff7f0e" stroke="#ff7f0e" stroke-width="1.5"/>
<circle cx="527.4" cy="111.9" r="3.2" fill="#ff7f0e" stroke="#ff7f0e" stroke-width="1.5"/>
<circle cx="558.7" cy="64.3" r="3.2" fill="#ff7f0e" stroke="#ff7f0e" stroke-width="1.5"/>
<circle cx="590.0" cy="85.2" r="3.2" fill="#ff7f0e" stroke="#ff7f0e" stroke-width="1.5"/>
<rect x="595" y="34" width="10" height="10" fill="#1f77b4"/><text x="609" y="43" fill="#333">green a time</text>
<rect x="595" y="52" width="10" height="10" fill="#ff7f0e"/><text x="609" y="61" fill="#333">green b time</text>
</svg>
