<svg xmlns="http://www.w3.org/2000/svg" viewBox="0 0 760 320" width="760" height="320" font-family="sans-serif" font-size="12">
<text x="58" y="20" font-size="14" font-weight="bold">Rebuild 94 — green a vs green b time (level)</text>
<line x1="58" y1="34" x2="58" y2="280" stroke="#888"/>
<line x1="58" y1="280" x2="590" y2="280" stroke="#888"/>
<line x1="54" y1="280.0" x2="58" y2="280.0" stroke="#888"/>
<text x="51" y="284.0" text-anchor="end" fill="#555">0</text>
<line x1="54" y1="230.8" x2="58" y2="230.8" stroke="#888"/>
<text x="51" y="234.8" text-anchor="end" fill="#555">120</text>
<line x1="54" y1="181.6" x2="58" y2="181.6" stroke="#888"/>
<text x="51" y="185.6" text-anchor="end" fill="#555">240</text>
<line x1="54" y1="132.4" x2="58" y2="132.4" stroke="#888"/>
<text x="51" y="136.4" text-anchor="end" fill="#555">360</text>
<line x1="54" y1="83.2" x2="58" y2="83.2" stroke="#888"/>
<text x="51" y="87.2" text-anchor="end" fill="#555">480</text>
<line x1="54" y1="34.0" x2="58" y2="34.0" stroke="#888"/>
<text x="51" y="38.0" text-anchor="end" fill="#555">600</text>
<text x="14" y="157" fill="#555" transform="rotate(-90 14 157)" text-anchor="middle">seconds</text>
<text x="58.0" y="296" text-anchor="middle" fill="#555">1</text>
<text x="106.4" y="296" text-anchor="middle" fill="#555">2</text>
<text x="154.7" y="296" text-anchor="middle" fill="#555">3</text>
<text x="203.1" y="296" text-anchor="middle" fill="#555">4</text>
<text x="251.5" y="296" text-anchor="middle" fill="#555">5</text>
<text x="299.8" y="296" text-anchor="middle" fill="#555">6</text>
<text x="348.2" y="296" text-anchor="middle" fill="#555">7</text>
<text x="396.5" y="296" text-anchor="middle" fill="#555">8</text>
<text x="444.9" y="296" text-anchor="middle" fill="#555">9</text>
<text x="493.3" y="296" text-anchor="middle" fill="#555">10</text>
<text x="541.6" y="296" text-anchor="middle" fill="#555">11</text>
<text x="590.0" y="296" text-anchor="middle" fill="#555">12</text>
<polyline fill="none" stroke="#1f77b4" stroke-width="1.5" points="58.0,167.5 106.4,159.6 154.7,172.8 203.1,158.1 251.5,154.3 299.8,158.7 348.2,183.9 396.5,156.5 444.9,148.7 493.3,74.1 541.6,181.6 590.0,167.5"/>
<circle cx="58.0" cy="167.5" r="3.2" fill="#1f77b4" stroke="#1f77b4" stroke-width="1.5"/>
<circle cx="106.4" cy="159.6" r="3.2" fill="#1f77b4" stroke="#1f77b4" stroke-width="1.5"/>
<circle cx="154.7" cy="172.8" r="3.2" fill="#1f77b4" stroke="#1f77b4" stroke-width="1.5"/>
<circle cx="203.1" cy="158.1" r="3.2" fill="#1f77b4" stroke="#1f77b4" stroke-width="1.5"/>
<circle cx="251.5" cy="154.3" r="3.2" fill="#1f77b4" stroke="#1f77b4" stroke-width="1.5"/>
<circle cx="299.8" cy="158.7" r="3.2" fill="#1f77b4" stroke="#1f77b4" stroke-width="1.5"/>
<circle cx="348.2" cy="183.9" r="3.2" fill="#1f77b4" stroke="#1f77b4" stroke-width="1.5"/>
<circle cx="396.5" cy="156.5" r="3.2" fill="#1f77b4" stroke="#1f77b4" stroke-width="1.5"/>
<circle cx="444.9" cy="148.7" r="3.2" fill="#1f77b4" stroke="#1f77b4" stroke-width="1.5"/>
<circle cx="493.3" cy="74.1" r="3.2" fill="#1f77b4" stroke="#1f77b4" stroke-width="1.5"/>
<circle cx="541.6" cy="181.6" r="3.2" fill="#1f77b4" stroke="#1f77b4" stroke-width="1.5"/>
<circle cx="590.0" cy="167.5" r="3.2" fill="#1f77b4" stroke="#1f77b4" stroke-width="1.5"/>
<polyline fill="none" stroke="#ff7f0e" stroke-width="1.5" points="58.0,179.9 106.4,171.0 154.7,198.5 203.1,154.0 251.5,150.6 299.8,166.3 348.2,178.8 396.5,148.3 444.9,155.8 493.3,94.3 541.6,173.2 590.0,142.3"/>
<circle cx="58.0" cy="179.9" r="3.2" fill="#ff7f0e" stroke="#ff7f0e" stroke-width="1.5"/>
<circle cx="106.4" cy="171.0" r="3.2" fill="#ff7f0e" stroke="#ff7f0e" stroke-width="1.5"/>
<circle cx="154.7" cy="198.5" r="3.2" fill="#ff7f0e" stroke="#ff7f0e" stroke-width="1.5"/>
<circle cx="203.1" cy="154.0" r="3.2" fill="#ff7f0e" stroke="#ff7f0e" stroke-width="1.5"/>
<circle cx="251.5" cy="150.6" r="3.2" fill="#ff7f0e" stroke="#ff7f0e" stroke-width="1.5"/>
<circle cx="299.8" cy="166.3" r="3.2" fill="#ff7f0e" stroke="#ff7f0e" stroke-width="1.5"/>
<circle cx="348.2" cy="178.8" r="3.2" fill="#ff7f0e" stroke="#ff7f0e" stroke-width="1.5"/>
<circle cx="396.5" cy="148.3" r="3.2" fill="#ff7f0e" stroke="#ff7f0e" stroke-width="1.5"/>
<circle cx="444.9" cy="155.8" r="3.2" fill="#ff7f0e" stroke="#ff7f0e" stroke-width="1.5"/>
<circle cx="493.3" cy="94.3" r="3.2" fill="#ff7f0e" stroke="#ff7f0e" stroke-width="1.5"/>
<circle cx="541.6" cy="173.2" r="3.2" fill="#ff7f0e" stroke="#ff7f0e" stroke-width="1.5"/>
<circle cx="590.0" cy="142.3" r="3.2" fill="#ff7f0e" stroke="#ff7f0e" stroke-width="1.5"/>
<rect x="595" y="34" width="10" height="10" fill="#1f77b4"/><text x="609" y="43" fill="#333">green a time</text>
<rect x="595" y="52" width="10" height="10" fill="#ff7f0e"/><text x="609" y="61" fill="#333">green b time</text>
</svg>
