<svg xmlns="http://www.w3.org/2000/svg" viewBox="0 0 760 320" width="760" height="320" font-family="sans-serif" font-size="12">
<text x="58" y="20" font-size="14" font-weight="bold">Rebuild 95 — green a vs green b time (level)</text>
<line x1="58" y1="34" x2="58" y2="280" stroke="#888"/>
<line x1="58" y1="280" x2="590" y2="280" stroke="#888"/>
<line x1="54" y1="280.0" x2="58" y2="280.0" stroke="#888"/>
<text x="51" y="284.0" text-anchor="end" fill="#555">0</text>
<line x1="54" y1="230.8" x2="58" y2="230.8" stroke="#888"/>
<text x="51" y="234.8" text-anchor="end" fill="#555">120</text>
<line x1="54" y1="181.6" x2="58" y2="181.6" stroke="#888"/>
<text x="51" y="185.6" text-anchor="end" fill="#555">240</text>
<line x1="54" y1="132.4" x2="58" y2="132.4" stroke="#888"/>
<text x="51" y="136.4" text-anchor="end" fill="#555">360</text>
<line x1="54" y1="83.2" x2="58" y2="83.2" stroke="#888"/>
<text x="51" y="87.2" text-anchor="end" fill="#555">480</text>
<line x1="54" y1="34.0" x2="58" y2="34.0" stroke="#888"/>
<text x="51" y="38.0" text-anchor="end" fill="#555">600</text>
<text x="14" y="157" fill="#555" transform="rotate(-90 14 157)" text-anchor="middle">seconds</text>
<text x="58.0" y="296" text-anchor="middle" fill="#555">1</text>
<text x="106.4" y="296" text-anchor="middle" fill="#555">2</text>
<text x="154.7" y="296" text-anchor="middle" fill="#555">3</text>
<text x="203.1" y="296" text-anchor="middle" fill="#555">4</text>
<text x="251.5" y="296" text-anchor="middle" fill="#555">5</text>
<text x="299.8" y="296" text-anchor="middle" fill="#555">6</text>
<text x="348.2" y="296" text-anchor="middle" fill="#555">7</text>
<text x="396.5" y="296" text-anchor="middle" fill="#555">8</text>
<text x="444.9" y="296" text-anchor="middle" fill="#555">9</text>
<text x="493.3" y="296" text-anchor="middle" fill="#555">10</text>
<text x="541.6" y="296" text-anchor="middle" fill="#555">11</text>
<text x="590.0" y="296" text-anchor="middle" fill="#555">12</text>
<polyline fill="none" stroke="#1f77b4" stroke-width="1.5" points="58.0,78.1 106.4,156.2 154.7,165.3 203.1,156.9 251.5,161.2 299.8,169.7 348.2,147.9 396.5,135.6 444.9,143.4 493.3,156.9 541.6,115.1 590.0,160.3"/>
<circle cx="58.0" cy="78.1" r="3.2" fill="#1f77b4" stroke="#1f77b4" stroke-width="1.5"/>
<circle cx="106.4" cy="156.2" r="3.2" fill="#1f77b4" stroke="#1f77b4" stroke-width="1.5"/>
<circle cx="154.7" cy="165.3" r="3.2" fill="#1f77b4" stroke="#1f77b4" stroke-width="1.5"/>
<circle cx="203.1" cy="156.9" r="3.2" fill="#1f77b4" stroke="#1f77b4" stroke-width="1.5"/>
<circle cx="251.5" cy="161.2" r="3.2" fill="#1f77b4" stroke="#1f77b4" stroke-width="1.5"/>
<circle cx="299.8" cy="169.7" r="3.2" fill="#1f77b4" stroke="#1f77b4" stroke-width="1.5"/>
<circle cx="348.2" cy="147.9" r="3.2" fill="#1f77b4" stroke="#1f77b4" stroke-width="1.5"/>
<circle cx="396.5" cy="135.6" r="3.2" fill="#1f77b4" stroke="#1f77b4" stroke-width="1.5"/>
<circle cx="444.9" cy="143.4" r="3.2" fill="#1f77b4" stroke="#1f77b4" stroke-width="1.5"/>
<circle cx="493.3" cy="156.9" r="3.2" fill="#1f77b4" stroke="#1f77b4" stroke-width="1.5"/>
<circle cx="541.6" cy="115.1" r="3.2" fill="#1f77b4" stroke="#1f77b4" stroke-width="1.5"/>
<circle cx="590.0" cy="160.3" r="3.2" fill="#1f77b4" stroke="#1f77b4" stroke-width="1.5"/>
<polyline fill="none" stroke="#ff7f0e" stroke-width="1.5" points="58.0,77.2 106.4,158.4 154.7,144.5 203.1,160.1 251.5,168.5 299.8,174.3 348.2,157.7 396.5,145.4 444.9,149.8 493.3,151.2 541.6,129.7 590.0,143.5"/>
<circle cx="58.0" cy="77.2" r="3.2" fill="#ff7f0e" stroke="#ff7f0e" stroke-width="1.5"/>
<circle cx="106.4" cy="158.4" r="3.2" fill="#ff7f0e" stroke="#ff7f0e" stroke-width="1.5"/>
<circle cx="154.7" cy="144.5" r="3.2" fill="#ff7f0e" stroke="#ff7f0e" stroke-width="1.5"/>
<circle cx="203.1" cy="160.1" r="3.2" fill="#ff7f0e" stroke="#ff7f0e" stroke-width="1.5"/>
<circle cx="251.5" cy="168.5" r="3.2" fill="#ff7f0e" stroke="#ff7f0e" stroke-width="1.5"/>
<circle cx="299.8" cy="174.3" r="3.2" fill="#ff7f0e" stroke="#ff7f0e" stroke-width="1.5"/>
<circle cx="348.2" cy="157.7" r="3.2" fill="#ff7f0e" stroke="#ff7f0e" stroke-width="1.5"/>
<circle cx="396.5" cy="145.4" r="3.2" fill="#ff7f0e" stroke="#ff7f0e" stroke-width="1.5"/>
<circle cx="444.9" cy="149.8" r="3.2" fill="#ff7f0e" stroke="#ff7f0e" stroke-width="1.5"/>
<circle cx="493.3" cy="151.2" r="3.2" fill="#ff7f0e" stroke="#ff7f0e" stroke-width="1.5"/>
<circle cx="541.6" cy="129.7" r="3.2" fill="#ff7f0e" stroke="#ff7f0e" stroke-width="1.5"/>
<circle cx="590.0" cy="143.5" r="3.2" fill="#ff7f0e" stroke="#ff7f0e" stroke-width="1.5"/>
<rect x="595" y="34" width="10" height="10" fill="#1f77b4"/><text x="609" y="43" fill="#333">green a time</text>
<rect x="595" y="52" width="10" height="10" fill="#ff7f0e"/><text x="609" y="61" fill="#333">green b time</text>
</svg>
