<svg xmlns="http://www.w3.org/2000/svg" viewBox="0 0 760 320" width="760" height="320" font-family="sans-serif" font-size="12">
<text x="58" y="20" font-size="14" font-weight="bold">Rebuild 97 — green pair range (XmR): raw vs token-scaled</text>
<line x1="58" y1="34" x2="58" y2="280" stroke="#888"/>
<line x1="58" y1="280" x2="590" y2="280" stroke="#888"/>
<line x1="54" y1="280.0" x2="58" y2="280.0" stroke="#888"/>
<text x="51" y="284.0" text-anchor="end" fill="#555">0</text>
<line x1="54" y1="218.5" x2="58" y2="218.5" stroke="#888"/>
<text x="51" y="222.5" text-anchor="end" fill="#555">10</text>
<line x1="54" y1="157.0" x2="58" y2="157.0" stroke="#888"/>
<text x="51" y="161.0" text-anchor="end" fill="#555">20</text>
<line x1="54" y1="95.5" x2="58" y2="95.5" stroke="#888"/>
<text x="51" y="99.5" text-anchor="end" fill="#555">30</text>
<line x1="54" y1="34.0" x2="58" y2="34.0" stroke="#888"/>
<text x="51" y="38.0" text-anchor="end" fill="#555">40</text>
<text x="14" y="157" fill="#555" transform="rotate(-90 14 157)" text-anchor="middle">seconds</text>
<text x="58.0" y="296" text-anchor="middle" fill="#555">1</text>
<text x="106.4" y="296" text-anchor="middle" fill="#555">2</text>
<text x="154.7" y="296" text-anchor="middle" fill="#555">3</text>
<text x="203.1" y="296" text-anchor="middle" fill="#555">4</text>
<text x="251.5" y="296" text-anchor="middle" fill="#555">5</text>
<text x="299.8" y="296" text-anchor="middle" fill="#555">6</text>
<text x="348.2" y="296" text-anchor="middle" fill="#555">7</text>
<text x="396.5" y="296" text-anchor="middle" fill="#555">8</text>
<text x="444.9" y="296" text-anchor="middle" fill="#555">9</text>
<text x="493.3" y="296" text-anchor="middle" fill="#555">10</text>
<text x="541.6" y="296" text-anchor="middle" fill="#555">11</text>
<text x="590.0" y="296" text-anchor="middle" fill="#555">12</text>
<line x1="58" y1="115.3" x2="590" y2="115.3" stroke="#ff7f0e" stroke-dasharray="5,4"/>
<text x="595" y="119.3" fill="#ff7f0e">UCL 27s</text>
<polyline fill="none" stroke="#d62728" stroke-width="1.5" points="58.0,146.6 106.4,251.8 154.7,247.1 203.1,212.5 251.5,218.4 299.8,230.6 348.2,60.4 396.5,139.2 444.9,224.8 493.3,203.2 541.6,152.3 590.0,165.4"/>
<circle cx="58.0" cy="146.6" r="3.2" fill="#d62728" stroke="#d62728" stroke-width="1.5"/>
<circle cx="106.4" cy="251.8" r="3.2" fill="#d62728" stroke="#d62728" stroke-width="1.5"/>
<circle cx="154.7" cy="247.1" r="3.2" fill="#d62728" stroke="#d62728" stroke-width="1.5"/>
<circle cx="203.1" cy="212.5" r="3.2" fill="#d62728" stroke="#d62728" stroke-width="1.5"/>
<circle cx="251.5" cy="218.4" r="3.2" fill="#d62728" stroke="#d62728" stroke-width="1.5"/>
<circle cx="299.8" cy="230.6" r="3.2" fill="#d62728" stroke="#d62728" stroke-width="1.5"/>
<circle cx="348.2" cy="60.4" r="3.2" fill="#d62728" stroke="#d62728" stroke-width="1.5"/>
<circle cx="396.5" cy="139.2" r="3.2" fill="#d62728" stroke="#d62728" stroke-width="1.5"/>
<circle cx="444.9" cy="224.8" r="3.2" fill="#d62728" stroke="#d62728" stroke-width="1.5"/>
<circle cx="493.3" cy="203.2" r="3.2" fill="#d62728" stroke="#d62728" stroke-width="1.5"/>
<circle cx="541.6" cy="152.3" r="3.2" fill="#d62728" stroke="#d62728" stroke-width="1.5"/>
<circle cx="590.0" cy="165.4" r="3.2" fill="#d62728" stroke="#d62728" stroke-width="1.5"/>
<polyline fill="none" stroke="#1f77b4" stroke-width="1.5" points="58.0,278.8 106.4,266.6 154.7,201.2 203.1,149.5 251.5,275.0 299.8,221.0 348.2,246.7 396.5,184.5 444.9,82.3 493.3,156.6 541.6,104.0 590.0,274.9"/>
<circle cx="58.0" cy="278.8" r="3.2" fill="#1f77b4" stroke="#1f77b4" stroke-width="1.5"/>
<circle cx="106.4" cy="266.6" r="3.2" fill="#1f77b4" stroke="#1f77b4" stroke-width="1.5"/>
<circle cx="154.7" cy="201.2" r="3.2" fill="#1f77b4" stroke="#1f77b4" stroke-width="1.5"/>
<circle cx="203.1" cy="149.5" r="3.2" fill="#1f77b4" stroke="#1f77b4" stroke-width="1.5"/>
<circle cx="251.5" cy="275.0" r="3.2" fill="#1f77b4" stroke="#1f77b4" stroke-width="1.5"/>
<circle cx="299.8" cy="221.0" r="3.2" fill="#1f77b4" stroke="#1f77b4" stroke-width="1.5"/>
<circle cx="348.2" cy="246.7" r="3.2" fill="#1f77b4" stroke="#1f77b4" stroke-width="1.5"/>
<circle cx="396.5" cy="184.5" r="3.2" fill="#1f77b4" stroke="#1f77b4" stroke-width="1.5"/>
<circle cx="444.9" cy="82.3" r="3.2" fill="#1f77b4" stroke="#1f77b4" stroke-width="1.5"/>
<circle cx="493.3" cy="156.6" r="3.2" fill="#1f77b4" stroke="#1f77b4" stroke-width="1.5"/>
<circle cx="541.6" cy="104.0" r="3.2" fill="#1f77b4" stroke="#1f77b4" stroke-width="1.5"/>
<circle cx="590.0" cy="274.9" r="3.2" fill="#1f77b4" stroke="#1f77b4" stroke-width="1.5"/>
<rect x="595" y="34" width="10" height="10" fill="#d62728"/><text x="609" y="43" fill="#333">raw range s</text>
<rect x="595" y="52" width="10" height="10" fill="#1f77b4"/><text x="609" y="61" fill="#333">token scaled s</text>
<rect x="595" y="70" width="10" height="10" fill="#ff7f0e"/><text x="609" y="79" fill="#333">range UCL</text>
</svg>
