<svg xmlns="http://www.w3.org/2000/svg" viewBox="0 0 760 320" width="760" height="320" font-family="sans-serif" font-size="12">
<text x="58" y="20" font-size="14" font-weight="bold">Rebuild 98 — green pair range (XmR): raw vs token-scaled</text>
<line x1="58" y1="34" x2="58" y2="280" stroke="#888"/>
<line x1="58" y1="280" x2="590" y2="280" stroke="#888"/>
<line x1="54" y1="280.0" x2="58" y2="280.0" stroke="#888"/>
<text x="51" y="284.0" text-anchor="end" fill="#555">0</text>
<line x1="54" y1="218.5" x2="58" y2="218.5" stroke="#888"/>
<text x="51" y="222.5" text-anchor="end" fill="#555">20</text>
<line x1="54" y1="157.0" x2="58" y2="157.0" stroke="#888"/>
<text x="51" y="161.0" text-anchor="end" fill="#555">40</text>
<line x1="54" y1="95.5" x2="58" y2="95.5" stroke="#888"/>
<text x="51" y="99.5" text-anchor="end" fill="#555">60</text>
<line x1="54" y1="34.0" x2="58" y2="34.0" stroke="#888"/>
<text x="51" y="38.0" text-anchor="end" fill="#555">80</text>
<text x="14" y="157" fill="#555" transform="rotate(-90 14 157)" text-anchor="middle">seconds</text>
<text x="58.0" y="296" text-anchor="middle" fill="#555">1</text>
<text x="111.2" y="296" text-anchor="middle" fill="#555">2</text>
<text x="164.4" y="296" text-anchor="middle" fill="#555">3</text>
<text x="217.6" y="296" text-anchor="middle" fill="#555">4</text>
<text x="270.8" y="296" text-anchor="middle" fill="#555">5</text>
<text x="324.0" y="296" text-anchor="middle" fill="#555">6</text>
<text x="377.2" y="296" text-anchor="middle" fill="#555">7</text>
<text x="430.4" y="296" text-anchor="middle" fill="#555">8</text>
<text x="483.6" y="296" text-anchor="middle" fill="#555">9</text>
<text x="536.8" y="296" text-anchor="middle" fill="#555">10</text>
<text x="590.0" y="296" text-anchor="middle" fill="#555">11</text>
<line x1="58" y1="72.9" x2="590" y2="72.9" stroke="#ff7f0e" stroke-dasharray="5,4"/>
<text x="595" y="76.9" fill="#ff7f0e">UCL 67s</text>
<polyline fill="none" stroke="#d62728" stroke-width="1.5" points="58.0,96.4 111.2,266.1 164.4,107.4 217.6,215.4 270.8,270.2 324.0,241.4 377.2,215.7 430.4,223.6 483.6,240.1 536.8,209.0 590.0,254.3"/>
<circle cx="58.0" cy="96.4" r="3.2" fill="#d62728" stroke="#d62728" stroke-width="1.5"/>
<circle cx="111.2" cy="266.1" r="3.2" fill="#d62728" stroke="#d62728" stroke-width="1.5"/>
<circle cx="164.4" cy="107.4" r="3.2" fill="#d62728" stroke="#d62728" stroke-width="1.5"/>
<circle cx="217.6" cy="215.4" r="3.2" fill="#d62728" stroke="#d62728" stroke-width="1.5"/>
<circle cx="270.8" cy="270.2" r="3.2" fill="#d62728" stroke="#d62728" stroke-width="1.5"/>
<circle cx="324.0" cy="241.4" r="3.2" fill="#d62728" stroke="#d62728" stroke-width="1.5"/>
<circle cx="377.2" cy="215.7" r="3.2" fill="#d62728" stroke="#d62728" stroke-width="1.5"/>
<circle cx="430.4" cy="223.6" r="3.2" fill="#d62728" stroke="#d62728" stroke-width="1.5"/>
<circle cx="483.6" cy="240.1" r="3.2" fill="#d62728" stroke="#d62728" stroke-width="1.5"/>
<circle cx="536.8" cy="209.0" r="3.2" fill="#d62728" stroke="#d62728" stroke-width="1.5"/>
<circle cx="590.0" cy="254.3" r="3.2" fill="#d62728" stroke="#d62728" stroke-width="1.5"/>
<polyline fill="none" stroke="#1f77b4" stroke-width="1.5" points="58.0,160.5 111.2,185.2 164.4,97.2 217.6,226.4 270.8,248.0 324.0,190.9 377.2,221.7 430.4,279.0 483.6,203.4 536.8,250.3 590.0,234.8"/>
<circle cx="58.0" cy="160.5" r="3.2" fill="#1f77b4" stroke="#1f77b4" stroke-width="1.5"/>
<circle cx="111.2" cy="185.2" r="3.2" fill="#1f77b4" stroke="#1f77b4" stroke-width="1.5"/>
<circle cx="164.4" cy="97.2" r="3.2" fill="#1f77b4" stroke="#1f77b4" stroke-width="1.5"/>
<circle cx="217.6" cy="226.4" r="3.2" fill="#1f77b4" stroke="#1f77b4" stroke-width="1.5"/>
<circle cx="270.8" cy="248.0" r="3.2" fill="#1f77b4" stroke="#1f77b4" stroke-width="1.5"/>
<circle cx="324.0" cy="190.9" r="3.2" fill="#1f77b4" stroke="#1f77b4" stroke-width="1.5"/>
<circle cx="377.2" cy="221.7" r="3.2" fill="#1f77b4" stroke="#1f77b4" stroke-width="1.5"/>
<circle cx="430.4" cy="279.0" r="3.2" fill="#1f77b4" stroke="#1f77b4" stroke-width="1.5"/>
<circle cx="483.6" cy="203.4" r="3.2" fill="#1f77b4" stroke="#1f77b4" stroke-width="1.5"/>
<circle cx="536.8" cy="250.3" r="3.2" fill="#1f77b4" stroke="#1f77b4" stroke-width="1.5"/>
<circle cx="590.0" cy="234.8" r="3.2" fill="#1f77b4" stroke="#1f77b4" stroke-width="1.5"/>
<rect x="595" y="34" width="10" height="10" fill="#d62728"/><text x="609" y="43" fill="#333">raw range s</text>
<rect x="595" y="52" width="10" height="10" fill="#1f77b4"/><text x="609" y="61" fill="#333">token scaled s</text>
<rect x="595" y="70" width="10" height="10" fill="#ff7f0e"/><text x="609" y="79" fill="#333">range UCL</text>
</svg>
